# xmcd
#
# Track frame offsets:
#	150
#	7566
#	19565
#	29876
#	68309
#	80554
#	105365
#	117955
#	132956
#	145527
#	146015
#
# Disc length: 2066 seconds
#
# Revision: 1
# Processed by: cddbd v1.5.2PL0 Copyright (c) Steve Scherf et al.
# Submitted via: EZCDAudioConverter 1.3.4.1
#
DISCID=8008100b
DTITLE=The Monkees - Head 3/3
DYEAR=2010
DGENRE=
TTITLE0=Circle Sky [Excerpt]
TTITLE1=Davy Jones Interview (Part 1)
TTITLE2=Can You Dig It [Excerpt]
TTITLE3=Davy Jones Interview (Part 2)
TTITLE4=Daddy's Song
TTITLE5=Davy Jones Interview (Part 3)
TTITLE6=Long Title: Do I Have To Do This All Over Again
TTITLE7=Davy Jones Interview (Part 4)
TTITLE8=Porpoise Song
TTITLE9=Davy Jones Interview (Part 5)
TTITLE10=Can You Dig It [Excerpt]
EXTD=
EXTT0=
EXTT1=
EXTT2=
EXTT3=
EXTT4=
EXTT5=
EXTT6=
EXTT7=
EXTT8=
EXTT9=
EXTT10=
PLAYORDER=
